<svg xmlns="http://www.w3.org/2000/svg" height="24" viewBox="0 -960 960 960" width="24"><path d="M224.615-200h510.77q10.769 0 17.692-6.923T760-224.615v-350.846L575.461-760H224.615q-10.769 0-17.692 6.923T200-735.385v510.77q0 10.769 6.923 17.692T224.615-200Zm0 40q-26.846 0-45.731-18.884Q160-197.769 160-224.615v-510.77q0-26.846 18.884-45.731Q197.769-800 224.615-800h366.924L800-591.539v366.924q0 26.846-18.884 45.731Q762.231-160 735.385-160h-510.77ZM300-320h360v-40H300v40Zm0-140h360v-40H300v40Zm0-140h229.231v-40H300v40ZM200-200v-560 560Z"/></svg>